<svg width="128" height="128" viewBox="0 0 128 128" fill="none" xmlns="http://www.w3.org/2000/svg">
  <rect x="12" y="28" width="104" height="76" rx="20" fill="#020817"/>
  <rect x="20" y="36" width="88" height="60" rx="16" fill="#0F172A"/>
  <rect x="44" y="16" width="40" height="10" rx="5" fill="#38BDF8"/>
  <circle cx="64" cy="16" r="4" fill="#0F172A"/>
  <rect x="60" y="8" width="8" height="10" rx="3" fill="#38BDF8"/>
  <circle cx="46" cy="62" r="10" fill="#020617"/>
  <circle cx="82" cy="62" r="10" fill="#020617"/>
  <circle cx="46" cy="62" r="5" fill="#38BDF8"/>
  <circle cx="82" cy="62" r="5" fill="#38BDF8"/>
  <path d="M48 84C52.5 88 57.9 90.5 64 90.5C70.1 90.5 75.5 88 80 84" stroke="#38BDF8" stroke-width="4" stroke-linecap="round"/>
  <rect x="28" y="46" width="8" height="20" rx="3" fill="#020617"/>
  <rect x="92" y="46" width="8" height="20" rx="3" fill="#020617"/>
  <circle cx="20" cy="52" r="4" fill="#38BDF8"/>
  <circle cx="108" cy="52" r="4" fill="#38BDF8"/>
</svg>
